PathFileType	4	(X/Y/Z)	C:/Users/opensim2020/Desktop/walking_exp_matlab/subject03_walking17_run.trc	
DataRate	CameraRate	NumFrames	NumMarkers	Units	OrigDataRate	OrigDataStartFrame	OrigNumFrames	
100.00	100.00	4	50	mm	100.00	319	132	
Frame#	Time	RTOE			LTHI			RWRB			LTIB			RELB			RUPA			RKNE			RTHI			RASI			RFRM			RWRA			RSHO			STRN			LFRM			CLAV			LWRB			LASI			RFHD			LFIN			LSHO			RTIB			LWRA			RBHD			LHEE			RANK			RHEE			C7			RFIN			LBHD			LUPA			LTOE			RBAK			LELB			LFHD			RPSI			LPSI			T10			LKNE			LANK			*39			*40			*41			*42			*43			*44			*45			*46			*47			*48			*49			
		X1	Y1	Z1	X2	Y2	Z2	X3	Y3	Z3	X4	Y4	Z4	X5	Y5	Z5	X6	Y6	Z6	X7	Y7	Z7	X8	Y8	Z8	X9	Y9	Z9	X10	Y10	Z10	X11	Y11	Z11	X12	Y12	Z12	X13	Y13	Z13	X14	Y14	Z14	X15	Y15	Z15	X16	Y16	Z16	X17	Y17	Z17	X18	Y18	Z18	X19	Y19	Z19	X20	Y20	Z20	X21	Y21	Z21	X22	Y22	Z22	X23	Y23	Z23	X24	Y24	Z24	X25	Y25	Z25	X26	Y26	Z26	X27	Y27	Z27	X28	Y28	Z28	X29	Y29	Z29	X30	Y30	Z30	X31	Y31	Z31	X32	Y32	Z32	X33	Y33	Z33	X34	Y34	Z34	X35	Y35	Z35	X36	Y36	Z36	X37	Y37	Z37	X38	Y38	Z38	X39	Y39	Z39	X40	Y40	Z40	X41	Y41	Z41	X42	Y42	Z42	X43	Y43	Z43	X44	Y44	Z44	X45	Y45	Z45	X46	Y46	Z46	X47	Y47	Z47	X48	Y48	Z48	X49	Y49	Z49	X50	Y50	Z50	

116	1.150	302.93494	2321.80151	42.08548	118.07938	1930.95300	631.92566	470.11154	1900.99170	995.82324	163.28128	1700.20715	374.16107	519.29285	1762.43579	1165.25183	503.35773	1809.01624	1248.63867	384.00443	2129.31177	505.02383	429.65131	2041.48682	655.48383	379.43802	2026.12659	945.10486	492.42221	1839.65100	1071.98230	444.05359	1922.87378	1036.91479	412.66632	1944.43958	1387.59998	272.28549	2065.52002	1190.42737	97.57317	2095.86694	1157.21912	269.63507	2007.70618	1353.67419	190.69316	2153.21362	1174.89758	149.08804	2035.73083	935.72656	327.87671	1974.29126	1641.62732	258.77454	2177.08789	1220.87805	116.29704	1970.91956	1397.54248	387.53363	2144.08350	311.77823	197.62599	2114.46826	1211.93481	312.59332	1870.85107	1565.45471	243.02402	1484.13611	319.66077	338.63461	2181.88599	97.96142	282.85995	2143.35010	80.71459	246.15990	1881.39014	1414.14941	477.38638	1969.94775	981.20142	183.47182	1889.98840	1560.16101	18.06878	2008.49133	1227.05725	248.02255	1501.50366	133.74947	329.43610	1825.31897	1260.76965	5.54091	2041.90576	1125.84424	197.86884	1999.12976	1637.21716	339.57153	1870.19543	977.68207	192.69760	1876.66345	973.85736	248.97639	1866.37402	1106.91150	154.77420	1886.81226	455.39307	205.49150	1517.30334	283.55478							231.98976	1896.35938	1671.73560																								 
117	1.160	298.59753	2336.85938	37.35718	115.34721	1971.21790	625.03027	469.67740	1943.99353	983.94061	159.09579	1747.00220	371.29266	523.25653	1804.83118	1150.95496	505.96451	1847.87988	1236.10413	382.51459	2159.01929	499.73111	427.84033	2072.66895	651.78381	379.51523	2057.53198	940.23248	494.08380	1882.38147	1058.72717	442.80353	1964.34595	1025.25000	412.51965	1977.32080	1380.64917	270.94534	2097.78174	1184.25122	95.40781	2124.14355	1142.79175	268.53632	2039.84680	1347.62366	186.83466	2185.67358	1155.17664	148.43839	2067.53955	931.18585	327.85419	2005.27832	1635.73584	254.60704	2214.67236	1198.17468	115.05114	2003.29370	1390.71948	385.41815	2167.83667	303.59885	196.40572	2148.69336	1193.30164	312.20386	1902.23181	1559.14551	238.40303	1527.08716	326.19144	334.27240	2194.01929	89.27183	281.48349	2152.67285	68.16392	246.36133	1913.31934	1408.21301	472.90323	2013.66956	969.25226	183.07690	1921.61719	1554.31714	16.38230	2035.07202	1219.15063	241.83543	1541.30859	140.39848	331.41101	1858.43872	1253.14563	4.42400	2066.00391	1116.84839	197.84671	2030.22534	1631.73828	338.51163	1901.06946	970.78027	191.76198	1907.71704	966.17261	249.38469	1897.65381	1100.70667	150.55383	1934.89612	445.84613	200.53940	1560.04639	289.45422							231.82887	1927.27295	1665.69360																								 
118	1.170	296.52902	2343.75146	34.53267	112.54655	2012.26782	616.48944	469.65463	1988.20203	971.21820	154.85672	1795.21399	367.97067	526.70923	1847.89575	1135.77185	508.78110	1887.28455	1222.31470	381.82272	2189.60669	492.81308	425.39987	2104.33521	647.44202	379.33261	2089.42114	934.81152	495.95892	1926.13000	1044.61292	441.64255	2006.89001	1012.97699	412.50565	2010.15918	1372.72302	269.94214	2130.15479	1177.29932	92.52232	2152.27075	1127.33716	267.43015	2072.11670	1340.60205	181.98047	2217.97021	1133.92859	147.64111	2098.99780	925.54816	327.79202	2036.32422	1629.12622	249.73232	2251.26489	1172.75342	113.97722	2035.43542	1382.81470	382.61743	2190.32129	294.92932	194.63634	2182.66382	1172.94666	311.65106	1933.57971	1552.05212	233.32344	1571.93030	331.01947	330.36670	2199.47778	81.64822	280.01642	2155.51782	56.74467	246.32016	1945.29260	1401.58459	468.02432	2058.52588	956.81036	182.60832	1953.24756	1547.71912	15.02891	2061.29639	1210.23767	234.53290	1584.97046	145.44464	332.79471	1891.35144	1244.83716	3.18367	2089.42383	1106.92236	197.73685	2061.70605	1625.72363	337.18488	1931.43726	963.66461	190.23854	1938.30579	957.48425	249.81973	1929.25720	1094.32727	146.04105	1984.15894	436.20877	195.53947	1605.20776	293.90585							231.68253	1958.00232	1658.79541																								 
119	1.180	293.37115	2341.84497	35.00089	109.44678	2053.99219	607.48468	469.64825	2033.50952	958.07959	150.31035	1844.80811	364.10587	530.24335	1891.90649	1119.70996	512.03625	1927.54578	1207.62659	380.03677	2220.90186	485.30133	422.83249	2136.14136	641.72565	379.18997	2120.70557	928.21240	497.89743	1970.94092	1030.02039	440.44083	2049.94507	1000.10992	412.80270	2042.88306	1363.88269	268.39322	2162.19214	1169.37097	89.19408	2179.78418	1110.96313	266.42154	2104.60962	1332.85120	175.95815	2249.61719	1110.92932	146.88387	2129.85205	918.73236	327.67111	2067.35962	1622.38574	243.90083	2287.13232	1145.09949	112.79295	2067.34302	1374.26367	378.74527	2211.47192	288.08340	192.27441	2216.21753	1150.60291	311.34113	1964.96338	1544.54993	228.57146	1618.53284	334.02762	325.56317	2199.59424	76.07543	278.06012	2153.39893	49.63716	246.25548	1976.89551	1394.35059	463.14743	2104.17822	944.35022	182.20178	1984.86719	1540.50781	13.88840	2087.23438	1200.31543	225.90579	1632.75281	148.70580	334.15829	1923.98657	1235.75781	2.13134	2111.86963	1096.44922	197.42984	2092.82764	1619.34009	335.95364	1961.03918	956.42303	188.94820	1968.32007	948.64130	250.08842	1960.80493	1087.34253	141.40364	2034.30945	426.56003	190.26031	1652.66992	297.26471							231.66319	1988.58252	1651.45483																								 
